<svg xmlns="http://www.w3.org/2000/svg" version="1.1" xmlns:xlink="http://www.w3.org/1999/xlink" xmlns:svgjs="http://svgjs.dev/svgjs" width="1500" height="1500" viewBox="0 0 1500 1500"><rect width="1500" height="1500" fill="#ffffff"></rect><g transform="matrix(0.6666666666666666,0,0,0.6666666666666666,249.39436519522388,587.5504012324149)"><svg viewBox="0 0 396 129" data-background-color="#ffffff" preserveAspectRatio="xMidYMid meet" height="488" width="1500" xmlns="http://www.w3.org/2000/svg" xmlns:xlink="http://www.w3.org/1999/xlink"><g id="tight-bounds" transform="matrix(1,0,0,1,0.24008861730862918,-0.08600770443226224)"><svg viewBox="0 0 395.52 129.17207868490826" height="129.17207868490826" width="395.52"><g><svg viewBox="0 0 395.52 129.17207868490826" height="129.17207868490826" width="395.52"><g><svg viewBox="0 0 395.52 129.17207868490826" height="129.17207868490826" width="395.52"><g id="textblocktransform"><svg viewBox="0 0 395.52 129.17207868490826" height="129.17207868490826" width="395.52" id="textblock"><g><svg viewBox="0 0 395.52 129.17207868490826" height="129.17207868490826" width="395.52"><path d="M394.594 27.705C392.735 14.297 387.435 10.569 387.435 10.569 371.165-3.241 350.86-0.264 332.619 1.72 300.414 1.801 268.339 4.75 236.208 6.333 168.767 6.574 100.749 2.605 33.643 12.393 27.339 15.396-6.54 12.983 1.121 29.421 3.129 36.259 10.456 43.848 10.232 50.123 11.236 51.223 12.631 48.702 13.226 50.284 15.309 54.548 18.711 52.537 21.501 55.057 17.614 61.788 20.403 67.393 23.062 73.265 18.377 74.794 12.371 74.07 9.675 79.138 9.396 82.812 7.89 82.115 6.235 81.954 5.026 81.847 2.59 82.249 2.999 83.402 4.394 87.344-1.594 89.623 2.162 93.485-0.422 97.668 3.948 101.288 3.353 105.82 3.278 106.732 3.687 107.509 4.338 107.724 7.22 108.877 3.018 111.13 3.464 113.57 33.029 130.249 65.104 118.719 95.394 126.388 103.259 121.025 97.346 128.292 100.489 127.166 102.943 125.852 104.728 131.295 107.499 128.211 107.927 127.327 107.276 125.235 108.8 125.637 109.6 125.852 110.307 125.798 110.418 124.564 110.586 122.714 109.117 123.867 108.726 122.902 112.947 118.021 111.906 129.633 115.866 129.15 115.68 127.729 114.528 125.691 116.889 125.959 119.232 123.921 119.306 122.231 121.389 126.817 121.463 127.809 121.835 128.506 122.43 128.989 128.938 124.001 135.409 130.759 142.233 128.506 146.417 126.039 150.433 129.847 154.672 128.909 156.16 128.158 157.666 126.817 159.098 129.07 176.632 129.552 195.319 127.541 211.943 129.15 256.364 126.147 303.836 130.384 350.674 126.415 361.719 124.886 373.192 122.714 383.958 120.971 383.958 120.971 392.679 116.198 392.679 94.745S394.538 75.974 394.817 58.892C395.096 41.81 396.398 41.113 394.538 27.705Z" opacity="1" fill="#2257bf" data-fill-palette-color="tertiary"></path><g transform="matrix(1,0,0,1,55.76832,26.230666666666668)"><svg width="283.98335999999995" viewBox="0.95 -38.75 157.14000000000001 42.45" height="76.71074535157491" data-palette-color="#ffffff"><path d="M12.8 1.05Q6.85 1.05 3.9-2.8 0.95-6.65 0.95-13.25L0.95-13.25Q0.95-18.7 3.3-23.35 5.65-28 9.85-30.75 14.05-33.5 19.3-33.5L19.3-33.5Q24.4-33.5 27.48-30.03 30.55-26.55 30.55-19.65L30.55-19.65Q30.55-14.75 28.28-9.93 26-5.1 21.95-2.02 17.9 1.05 12.8 1.05L12.8 1.05ZM13.5-3.45Q15.95-3.45 18.3-6.2 20.65-8.95 22.13-13.25 23.6-17.55 23.6-22L23.6-22Q23.6-25.4 22.48-26.93 21.35-28.45 18.5-28.45L18.5-28.45Q15.35-28.45 12.9-25.7 10.45-22.95 9.1-18.85 7.75-14.75 7.75-10.9L7.75-10.9Q7.75-8.65 8.58-6.95 9.4-5.25 10.73-4.35 12.05-3.45 13.5-3.45L13.5-3.45ZM39-2.3Q38.7-1.6 38.55-1.05L38.55-1.05Q38.1 0.1 37.75 0.63 37.4 1.15 36.65 1.15L36.65 1.15 35.25 1.2Q34 1.2 33.25 0.68 32.5 0.15 32.4-1.45L32.4-1.45Q32.45-1.5 32.9-2.58 33.35-3.65 33.8-5.5L33.8-5.5Q34.4-7.95 35-10.35 35.6-12.75 36.15-15L36.15-15Q36.9-17.95 38.35-23.83 39.8-29.7 40.6-33.15L40.6-33.15Q40.55-33.9 40.5-35.23 40.45-36.55 40.45-37.3L40.45-37.3Q40.6-37.95 41.57-38.35 42.55-38.75 43.35-38.75L43.35-38.75Q44.6-38.75 45.95-37.9 47.3-37.05 47.35-35.85L47.35-35.85 43.6-21.05Q44.95-22.6 46.87-23.23 48.8-23.85 50.45-23.85L50.45-23.85Q52.8-23.85 54.67-22.5 56.55-21.15 57.62-18.93 58.7-16.7 58.7-14.25L58.7-14.25Q58.7-10.65 57-7.18 55.3-3.7 52.05-1.48 48.8 0.75 44.45 0.75L44.45 0.75Q43.2 0.75 41.37-0.15 39.55-1.05 39-2.3L39-2.3ZM40.2-6.45Q40.85-5.3 42.15-4.4 43.45-3.5 44.5-3.5L44.5-3.5Q46.85-3.5 48.8-5.58 50.75-7.65 51.9-10.53 53.05-13.4 53.05-15.7L53.05-15.7Q53.05-17.3 52.2-18.35 51.35-19.4 49.7-19.4L49.7-19.4Q48.25-19.4 46.6-18.75 44.95-18.1 43.67-16.88 42.4-15.65 41.95-14.05L41.95-14.05 40.2-6.45ZM73.34-16.9L68.8 1.7Q68.4 2.5 67.52 3.1 66.65 3.7 65.65 3.7L65.65 3.7Q64.75 3.7 63.82 3.03 62.9 2.35 62.9 1.25L62.9 1.25 62.9 0.95 67.15-16.4 62.5-16Q60.95-16 60.95-17.55L60.95-17.55Q60.95-18.8 61.85-20.05L61.85-20.05Q62-20.25 68.4-20.95L68.4-20.95 69.3-25.1Q70.5-30.3 73.12-32.98 75.75-35.65 80.55-35.65L80.55-35.65Q82.84-35.65 84.55-34.65 86.25-33.65 87.09-32.1 87.95-30.55 87.95-28.95L87.95-28.95Q87.95-27.7 87.37-26.95 86.8-26.2 85-26.2L85-26.2Q84.34-26.2 84.07-26.6 83.8-27 83.5-27.95L83.5-27.95Q83.15-29.2 82.55-29.9 81.95-30.6 80.45-30.6L80.45-30.6Q78.75-30.6 77.57-29.68 76.4-28.75 76.05-27.45L76.05-27.45 74.5-21.55 77.55-21.85Q79.55-22.05 79.7-22.05L79.7-22.05Q81.59-22.05 81.59-19.85L81.59-19.85Q81.59-19 80.87-18.32 80.15-17.65 79.3-17.5L79.3-17.5 73.34-16.9ZM102.94-0.15Q102.74 0.7 102.04 1.03 101.34 1.35 100.19 1.35L100.19 1.35Q96.74 1.35 96.74-0.2L96.74-0.2 97.04-2.1Q95.64-1.05 93.74 0 91.84 1.05 90.59 1.05L90.59 1.05Q83.19 1.05 83.19-3.8L83.19-3.8Q83.19-12.05 88.14-21.7L88.14-21.7Q88.74-22.85 89.42-23.35 90.09-23.85 91.74-23.85L91.74-23.85Q93.49-23.85 94.37-23.38 95.24-22.9 95.24-22.25L95.24-22.25Q95.24-22.1 94.69-21.35L94.69-21.35Q94.14-20.7 93.74-20.05L93.74-20.05Q89.04-12.2 89.04-4.75L89.04-4.75Q89.04-4.1 89.54-3.6 90.04-3.1 90.44-3.1L90.44-3.1Q91.54-3.1 94.17-4.15 96.79-5.2 98.19-6.3L98.19-6.3 99.19-10.35Q100.99-17.6 101.44-19.25L101.44-19.25Q101.99-21.25 102.87-22.53 103.74-23.8 105.64-23.8L105.64-23.8Q108.29-23.8 108.29-22.2L108.29-22.2Q108.29-21.95 108.17-21.58 108.04-21.2 107.99-20.95L107.99-20.95 105.99-12.85Q103.59-3.2 102.94-0.15L102.94-0.15ZM126.29-19.35Q125.69-19.65 124.79-19.65L124.79-19.65Q122.54-19.65 120.29-18.75 118.04-17.85 118.04-16.45L118.04-16.45Q118.04-15.45 118.94-14.85 119.84-14.25 121.79-13.5L121.79-13.5Q123.89-12.65 125.19-11.9 126.49-11.15 127.47-9.73 128.44-8.3 128.44-6.1L128.44-6.1Q128.44-2.5 125.47-0.58 122.49 1.35 117.49 1.35L117.49 1.35Q115.04 1.35 112.94 0.6 110.84-0.15 109.62-1.33 108.39-2.5 108.29-3.65L108.29-3.65Q108.29-4.85 109.34-5.63 110.39-6.4 112.29-6.65L112.29-6.65Q112.34-5.65 113.34-4.78 114.34-3.9 115.72-3.38 117.09-2.85 118.09-2.85L118.09-2.85Q119.79-2.85 121.19-3.78 122.59-4.7 122.59-5.95L122.59-5.95Q122.59-8.25 118.14-9.6L118.14-9.6Q115.29-10.45 113.77-12.3 112.24-14.15 112.24-16.2L112.24-16.2Q112.24-20.25 115.92-22.03 119.59-23.8 125.29-23.8L125.29-23.8Q128.49-23.8 130.24-23.05 131.99-22.3 131.99-20.45L131.99-20.45Q131.99-19.2 131.06-18.25 130.14-17.3 128.44-17.3L128.44-17.3Q126.94-17.3 126.52-17.53 126.09-17.75 126.04-18.3L126.04-18.3Q126.04-18.8 126.29-19.35L126.29-19.35ZM152.74-0.15Q152.54 0.7 151.84 1.03 151.14 1.35 149.99 1.35L149.99 1.35Q146.54 1.35 146.54-0.2L146.54-0.2 146.84-2.1Q145.44-1.05 143.54 0 141.64 1.05 140.39 1.05L140.39 1.05Q132.99 1.05 132.99-3.8L132.99-3.8Q132.99-12.05 137.94-21.7L137.94-21.7Q138.54-22.85 139.21-23.35 139.89-23.85 141.54-23.85L141.54-23.85Q143.29-23.85 144.16-23.38 145.04-22.9 145.04-22.25L145.04-22.25Q145.04-22.1 144.49-21.35L144.49-21.35Q143.94-20.7 143.54-20.05L143.54-20.05Q138.84-12.2 138.84-4.75L138.84-4.75Q138.84-4.1 139.34-3.6 139.84-3.1 140.24-3.1L140.24-3.1Q141.34-3.1 143.96-4.15 146.59-5.2 147.99-6.3L147.99-6.3 148.99-10.35Q150.79-17.6 151.24-19.25L151.24-19.25Q151.79-21.25 152.66-22.53 153.54-23.8 155.44-23.8L155.44-23.8Q158.09-23.8 158.09-22.2L158.09-22.2Q158.09-21.95 157.96-21.58 157.84-21.2 157.79-20.95L157.79-20.95 155.79-12.85Q153.39-3.2 152.74-0.15L152.74-0.15Z" opacity="1" transform="matrix(1,0,0,1,0,0)" fill="#ffffff" class="wordmark-text-0" data-fill-palette-color="quaternary" id="text-0"></path></svg></g></svg></g></svg></g></svg></g><g></g></svg></g><defs></defs></svg><rect width="395.52" height="129.17207868490826" fill="none" stroke="none" visibility="hidden"></rect></g></svg></g></svg>